<?xml version="1.0" encoding="UTF-8"?>
<svg xmlns="http://www.w3.org/2000/svg" viewBox="0 0 720 400" role="img" aria-label="Navigation">
  <defs>
    <linearGradient id="bg" x1="0" y1="0" x2="1" y2="1">
      <stop offset="0%" stop-color="#FAFAFF"/><stop offset="100%" stop-color="#F8FAFC"/>
    </linearGradient>
    <linearGradient id="brand" x1="0" y1="0" x2="1" y2="0">
      <stop offset="0%" stop-color="#635BFF"/><stop offset="100%" stop-color="#818CF8"/>
    </linearGradient>
  </defs>
  <rect width="720" height="400" rx="16" fill="url(#bg)"/>
  <rect x="20" y="20" width="680" height="360" rx="14" fill="#fff" stroke="#E2E8F0"/>
  <text x="44" y="52" font-family="system-ui,-apple-system,sans-serif" font-size="13" font-weight="600" fill="#64748B">Navigation</text>
  
  <rect x="44" y="68" width="632" height="36" rx="8" fill="#F8FAFC" stroke="#E2E8F0"/>
  <circle cx="64" cy="86" r="6" fill="#FCA5A5"/><circle cx="82" cy="86" r="6" fill="#FCD34D"/><circle cx="100" cy="86" r="6" fill="#86EFAC"/>
  <text x="360" y="90" text-anchor="middle" font-family="system-ui,sans-serif" font-size="11" fill="#64748B">Navigation</text>
  
    <rect x="64" y="120" width="160" height="240" rx="10" fill="#EEF2FF" stroke="#C7D2FE"/>
    <text x="84" y="152" font-family="system-ui,sans-serif" font-size="11" font-weight="600" fill="#635BFF">Content Library</text>
    <text x="84" y="178" font-family="system-ui,sans-serif" font-size="11" fill="#0F172A">Plans</text>
    <text x="84" y="204" font-family="system-ui,sans-serif" font-size="11" fill="#0F172A">Help Center</text>
    <text x="84" y="230" font-family="system-ui,sans-serif" font-size="11" fill="#0F172A">Support</text>
    <rect x="240" y="120" width="416" height="240" rx="12" fill="#F8FAFC" stroke="#E2E8F0"/>
    <text x="264" y="156" font-family="system-ui,sans-serif" font-size="13" font-weight="600" fill="#0F172A">Pick a section to get started</text>
    <rect x="264" y="180" width="360" height="10" rx="4" fill="#E2E8F0"/><rect x="264" y="202" width="320" height="10" rx="4" fill="#E2E8F0"/><rect x="264" y="224" width="280" height="10" rx="4" fill="#E2E8F0"/><rect x="264" y="246" width="360" height="10" rx="4" fill="#E2E8F0"/><rect x="264" y="268" width="320" height="10" rx="4" fill="#E2E8F0"/>
</svg>