<?xml version="1.0" encoding="UTF-8"?>
<svg xmlns="http://www.w3.org/2000/svg" viewBox="0 0 720 400" role="img" aria-label="Dashboard">
  <defs>
    <linearGradient id="bg" x1="0" y1="0" x2="1" y2="1">
      <stop offset="0%" stop-color="#FAFAFF"/><stop offset="100%" stop-color="#F8FAFC"/>
    </linearGradient>
    <linearGradient id="brand" x1="0" y1="0" x2="1" y2="0">
      <stop offset="0%" stop-color="#635BFF"/><stop offset="100%" stop-color="#818CF8"/>
    </linearGradient>
  </defs>
  <rect width="720" height="400" rx="16" fill="url(#bg)"/>
  <rect x="20" y="20" width="680" height="360" rx="14" fill="#fff" stroke="#E2E8F0"/>
  <text x="44" y="52" font-family="system-ui,-apple-system,sans-serif" font-size="13" font-weight="600" fill="#64748B">Dashboard</text>
  
  <rect x="44" y="68" width="632" height="36" rx="8" fill="#F8FAFC" stroke="#E2E8F0"/>
  <circle cx="64" cy="86" r="6" fill="#FCA5A5"/><circle cx="82" cy="86" r="6" fill="#FCD34D"/><circle cx="100" cy="86" r="6" fill="#86EFAC"/>
  <text x="360" y="90" text-anchor="middle" font-family="system-ui,sans-serif" font-size="11" fill="#64748B">Dashboard</text>
  
    <rect x="64" y="120" width="130" height="240" rx="10" fill="#EEF2FF" stroke="#E2E8F0"/>
    <rect x="80" y="140" width="90" height="8" rx="4" fill="#635BFF" opacity=".6"/>
    <rect x="80" y="160" width="90" height="10" rx="4" fill="#E2E8F0"/><rect x="80" y="182" width="50" height="10" rx="4" fill="#E2E8F0"/><rect x="80" y="204" width="10" height="10" rx="4" fill="#E2E8F0"/><rect x="80" y="226" width="90" height="10" rx="4" fill="#E2E8F0"/><rect x="80" y="248" width="50" height="10" rx="4" fill="#E2E8F0"/>
    <rect x="210" y="120" width="200" height="110" rx="12" fill="#EEF2FF" stroke="#C7D2FE"/>
    <text x="230" y="150" font-family="system-ui,sans-serif" font-size="11" fill="#64748B">Credits remaining</text>
    <text x="230" y="190" font-family="system-ui,sans-serif" font-size="32" font-weight="700" fill="#635BFF">128</text>
    <rect x="424" y="120" width="232" height="110" rx="12" fill="#F8FAFC" stroke="#E2E8F0"/>
    <text x="444" y="150" font-family="system-ui,sans-serif" font-size="12" fill="#0F172A">Notifications</text>
    <rect x="210" y="246" width="446" height="114" rx="12" fill="#F8FAFC" stroke="#E2E8F0"/>
    <text x="230" y="276" font-family="system-ui,sans-serif" font-size="12" font-weight="600" fill="#0F172A">Recent projects</text>
    <rect x="230" y="296" width="380" height="8" rx="4" fill="#E2E8F0"/><rect x="230" y="296" width="171" height="8" rx="4" fill="#635BFF"/>
</svg>