<?xml version="1.0" encoding="UTF-8"?>
<svg xmlns="http://www.w3.org/2000/svg" viewBox="0 0 720 400" role="img" aria-label="Cutup">
  <defs>
    <linearGradient id="bg" x1="0" y1="0" x2="1" y2="1">
      <stop offset="0%" stop-color="#FAFAFF"/><stop offset="100%" stop-color="#F8FAFC"/>
    </linearGradient>
    <linearGradient id="brand" x1="0" y1="0" x2="1" y2="0">
      <stop offset="0%" stop-color="#635BFF"/><stop offset="100%" stop-color="#818CF8"/>
    </linearGradient>
  </defs>
  <rect width="720" height="400" rx="16" fill="url(#bg)"/>
  <rect x="20" y="20" width="680" height="360" rx="14" fill="#fff" stroke="#E2E8F0"/>
  <text x="44" y="52" font-family="system-ui,-apple-system,sans-serif" font-size="13" font-weight="600" fill="#64748B">Cutup</text>
  
  <rect x="44" y="68" width="632" height="36" rx="8" fill="#F8FAFC" stroke="#E2E8F0"/>
  <circle cx="64" cy="86" r="6" fill="#FCA5A5"/><circle cx="82" cy="86" r="6" fill="#FCD34D"/><circle cx="100" cy="86" r="6" fill="#86EFAC"/>
  <text x="360" y="90" text-anchor="middle" font-family="system-ui,sans-serif" font-size="11" fill="#64748B">Cutup</text>
  
    <rect x="64" y="120" width="360" height="240" rx="10" fill="#0F172A"/>
    <text x="88" y="280" font-family="monospace" font-size="10" fill="#fff">00:00:01 - 00:00:04  Hello world</text>
    <rect x="440" y="120" width="216" height="240" rx="12" fill="#EEF2FF" stroke="#C7D2FE"/>
    <text x="464" y="156" font-family="system-ui,sans-serif" font-size="12" font-weight="600" fill="#0F172A">SRT format</text>
    <rect x="464" y="172" width="170" height="10" rx="4" fill="#E2E8F0"/><rect x="464" y="194" width="130" height="10" rx="4" fill="#E2E8F0"/><rect x="464" y="216" width="90" height="10" rx="4" fill="#E2E8F0"/><rect x="464" y="238" width="170" height="10" rx="4" fill="#E2E8F0"/><rect x="464" y="260" width="130" height="10" rx="4" fill="#E2E8F0"/>
</svg>