<?xml version="1.0" encoding="UTF-8"?>
<svg xmlns="http://www.w3.org/2000/svg" viewBox="0 0 720 400" role="img">
  <defs>
    <linearGradient id="bg" x1="0" y1="0" x2="1" y2="1">
      <stop offset="0%" stop-color="#FAFAFF"/>
      <stop offset="100%" stop-color="#F8FAFC"/>
    </linearGradient>
    <linearGradient id="brand" x1="0" y1="0" x2="1" y2="0">
      <stop offset="0%" stop-color="#635BFF"/>
      <stop offset="100%" stop-color="#818CF8"/>
    </linearGradient>
  </defs>
  <rect width="720" height="400" rx="16" fill="url(#bg)"/>
  <rect x="24" y="24" width="672" height="352" rx="14" fill="#fff" stroke="#E2E8F0"/>
  <text x="48" y="58" font-family="system-ui,sans-serif" font-size="13" font-weight="600" fill="#64748B">Export MP4</text>
  
    <rect x="48" y="80" width="280" height="260" rx="12" fill="#EEF2FF" stroke="#C7D2FE"/>
    <rect x="72" y="108" width="232" height="130" rx="8" fill="#0F172A"/>
    <rect x="88" y="200" width="180" height="24" rx="4" fill="#fff" opacity=".9"/>
    <text x="100" y="216" font-family="system-ui,sans-serif" font-size="10" fill="#0F172A">Burned-in captions preview</text>
    <rect x="352" y="80" width="320" height="260" rx="12" fill="#F8FAFC" stroke="#E2E8F0"/>
    <text x="376" y="112" font-family="system-ui,sans-serif" font-size="12" font-weight="600" fill="#0F172A">Export progress</text>
    <rect x="376" y="132" width="260" height="8" rx="4" fill="#E2E8F0"/><rect x="376" y="132" width="203" height="8" rx="4" fill="#635BFF"/>
    <text x="376" y="168" font-family="system-ui,sans-serif" font-size="11" fill="#64748B">Rendering MP4… 78%</text>
    <rect x="376" y="200" width="160" height="32" rx="8" fill="url(#brand)"/><text x="390" y="221" font-family="system-ui,sans-serif" font-size="12" font-weight="600" fill="#fff">Download MP4</text>
</svg>