<?xml version="1.0" encoding="UTF-8"?>
<svg xmlns="http://www.w3.org/2000/svg" viewBox="0 0 720 400" role="img" aria-label="Export">
  <defs>
    <linearGradient id="bg" x1="0" y1="0" x2="1" y2="1">
      <stop offset="0%" stop-color="#FAFAFF"/><stop offset="100%" stop-color="#F8FAFC"/>
    </linearGradient>
    <linearGradient id="brand" x1="0" y1="0" x2="1" y2="0">
      <stop offset="0%" stop-color="#635BFF"/><stop offset="100%" stop-color="#818CF8"/>
    </linearGradient>
  </defs>
  <rect width="720" height="400" rx="16" fill="url(#bg)"/>
  <rect x="20" y="20" width="680" height="360" rx="14" fill="#fff" stroke="#E2E8F0"/>
  <text x="44" y="52" font-family="system-ui,-apple-system,sans-serif" font-size="13" font-weight="600" fill="#64748B">Export</text>
  
  <rect x="44" y="68" width="632" height="36" rx="8" fill="#F8FAFC" stroke="#E2E8F0"/>
  <circle cx="64" cy="86" r="6" fill="#FCA5A5"/><circle cx="82" cy="86" r="6" fill="#FCD34D"/><circle cx="100" cy="86" r="6" fill="#86EFAC"/>
  <text x="360" y="90" text-anchor="middle" font-family="system-ui,sans-serif" font-size="11" fill="#64748B">Export</text>
  
    <rect x="64" y="120" width="360" height="240" rx="12" fill="#EEF2FF" stroke="#C7D2FE"/>
    <rect x="88" y="148" width="312" height="176" rx="8" fill="#0F172A"/>
    <rect x="120" y="280" width="220" height="28" rx="4" fill="#fff" opacity=".92"/>
    <text x="136" y="299" font-family="system-ui,sans-serif" font-size="11" fill="#0F172A">Burned-in captions on video</text>
    <rect x="440" y="120" width="216" height="240" rx="12" fill="#F8FAFC" stroke="#E2E8F0"/>
    <text x="464" y="156" font-family="system-ui,sans-serif" font-size="12" font-weight="600" fill="#0F172A">Export MP4</text>
    <rect x="464" y="180" width="140" height="34" rx="10" fill="url(#brand)"/><text x="480" y="202" font-family="system-ui,sans-serif" font-size="12" font-weight="600" fill="#fff">Start export</text>
</svg>