<?xml version="1.0" encoding="UTF-8"?>
<svg xmlns="http://www.w3.org/2000/svg" viewBox="0 0 720 400" role="img">
  <defs>
    <linearGradient id="bg" x1="0" y1="0" x2="1" y2="1">
      <stop offset="0%" stop-color="#FAFAFF"/>
      <stop offset="100%" stop-color="#F8FAFC"/>
    </linearGradient>
    <linearGradient id="brand" x1="0" y1="0" x2="1" y2="0">
      <stop offset="0%" stop-color="#635BFF"/>
      <stop offset="100%" stop-color="#818CF8"/>
    </linearGradient>
  </defs>
  <rect width="720" height="400" rx="16" fill="url(#bg)"/>
  <rect x="24" y="24" width="672" height="352" rx="14" fill="#fff" stroke="#E2E8F0"/>
  <text x="48" y="58" font-family="system-ui,sans-serif" font-size="13" font-weight="600" fill="#64748B">Quick start</text>
  
  <rect x="48" y="80" width="120" height="260" rx="10" fill="#EEF2FF" stroke="#E2E8F0"/>
  <rect x="64" y="100" width="72" height="8" rx="4" fill="#635BFF" opacity=".35"/>
  <rect x="64" y="120" width="88" height="6" rx="3" fill="#CBD5E1"/>
  <rect x="64" y="136" width="88" height="6" rx="3" fill="#CBD5E1"/>
  <rect x="64" y="152" width="88" height="6" rx="3" fill="#635BFF" opacity=".5"/>
  <rect x="64" y="168" width="88" height="6" rx="3" fill="#CBD5E1"/><rect x="192" y="80" width="480" height="120" rx="12" fill="#EEF2FF" stroke="#C7D2FE"/>
    <text x="216" y="118" font-family="system-ui,sans-serif" font-size="14" fill="#0F172A">Paste link or upload video</text>
    <rect x="216" y="140" width="120" height="32" rx="8" fill="url(#brand)"/><text x="230" y="161" font-family="system-ui,sans-serif" font-size="12" font-weight="600" fill="#fff">Transcribe</text>
    <rect x="216" y="188" width="320" height="8" rx="4" fill="#E2E8F0"/><rect x="216" y="188" width="208" height="8" rx="4" fill="#635BFF"/>
    <text x="216" y="214" font-family="system-ui,sans-serif" font-size="11" fill="#64748B">Generating transcript…</text>
</svg>