<?xml version="1.0" encoding="UTF-8"?>
<svg xmlns="http://www.w3.org/2000/svg" viewBox="0 0 720 400" role="img" aria-label="Supported formats">
  <defs>
    <linearGradient id="bg" x1="0" y1="0" x2="1" y2="1">
      <stop offset="0%" stop-color="#FAFAFF"/><stop offset="100%" stop-color="#F8FAFC"/>
    </linearGradient>
    <linearGradient id="brand" x1="0" y1="0" x2="1" y2="0">
      <stop offset="0%" stop-color="#635BFF"/><stop offset="100%" stop-color="#818CF8"/>
    </linearGradient>
  </defs>
  <rect width="720" height="400" rx="16" fill="url(#bg)"/>
  <rect x="20" y="20" width="680" height="360" rx="14" fill="#fff" stroke="#E2E8F0"/>
  <text x="44" y="52" font-family="system-ui,-apple-system,sans-serif" font-size="13" font-weight="600" fill="#64748B">Supported formats</text>
  
    <rect x="44" y="72" width="200" height="300" rx="12" fill="#F8FAFC" stroke="#E2E8F0"/><text x="68" y="108" font-family="system-ui,sans-serif" font-size="13" font-weight="600" fill="#0F172A">MP4</text>
    <rect x="68" y="124" width="152" height="80" rx="8" fill="#EEF2FF"/><text x="88" y="172" font-family="system-ui,sans-serif" font-size="11" fill="#635BFF">H.264 + AAC</text>
    <rect x="260" y="72" width="200" height="300" rx="12" fill="#F8FAFC" stroke="#E2E8F0"/><text x="284" y="108" font-family="system-ui,sans-serif" font-size="13" font-weight="600" fill="#0F172A">MOV / WEBM</text>
    <rect x="284" y="124" width="152" height="80" rx="8" fill="#F1F5F9"/>
    <rect x="476" y="72" width="200" height="300" rx="12" fill="#F8FAFC" stroke="#E2E8F0"/><text x="500" y="108" font-family="system-ui,sans-serif" font-size="13" font-weight="600" fill="#0F172A">YouTube</text>
    <rect x="500" y="124" width="152" height="100" rx="8" fill="#0F172A"/><polygon points="560,158 560,188 588,173" fill="#fff"/>
</svg>