<?xml version="1.0" encoding="UTF-8"?>
<svg xmlns="http://www.w3.org/2000/svg" viewBox="0 0 720 400" role="img">
  <defs>
    <linearGradient id="bg" x1="0" y1="0" x2="1" y2="1">
      <stop offset="0%" stop-color="#FAFAFF"/>
      <stop offset="100%" stop-color="#F8FAFC"/>
    </linearGradient>
    <linearGradient id="brand" x1="0" y1="0" x2="1" y2="0">
      <stop offset="0%" stop-color="#635BFF"/>
      <stop offset="100%" stop-color="#818CF8"/>
    </linearGradient>
  </defs>
  <rect width="720" height="400" rx="16" fill="url(#bg)"/>
  <rect x="24" y="24" width="672" height="352" rx="14" fill="#fff" stroke="#E2E8F0"/>
  <text x="48" y="58" font-family="system-ui,sans-serif" font-size="13" font-weight="600" fill="#64748B">Supported formats</text>
  
    <rect x="48" y="80" width="200" height="260" rx="12" fill="#F8FAFC" stroke="#E2E8F0"/>
    <text x="72" y="112" font-family="system-ui,sans-serif" font-size="12" font-weight="600" fill="#0F172A">Upload</text>
    <rect x="72" y="128" width="152" height="48" rx="8" fill="#EEF2FF" stroke="#C7D2FE" stroke-dasharray="6 4"/>
    <text x="88" y="158" font-family="system-ui,sans-serif" font-size="11" fill="#635BFF">MP4 · MOV · WEBM</text>
    <rect x="272" y="80" width="200" height="260" rx="12" fill="#F8FAFC" stroke="#E2E8F0"/>
    <text x="296" y="112" font-family="system-ui,sans-serif" font-size="12" font-weight="600" fill="#0F172A">YouTube</text>
    <rect x="296" y="128" width="152" height="90" rx="8" fill="#0F172A" opacity=".85"/>
    <polygon points="340,158 340,188 368,173" fill="#fff"/>
    <rect x="496" y="80" width="176" height="260" rx="12" fill="#F8FAFC" stroke="#E2E8F0"/>
    <text x="520" y="112" font-family="system-ui,sans-serif" font-size="12" font-weight="600" fill="#0F172A">Instagram</text>
    <rect x="520" y="128" width="128" height="128" rx="8" fill="url(#brand)" opacity=".15"/>
</svg>