<?xml version="1.0" encoding="UTF-8"?>
<svg xmlns="http://www.w3.org/2000/svg" viewBox="0 0 720 400" role="img" aria-label="Languages">
  <defs>
    <linearGradient id="bg" x1="0" y1="0" x2="1" y2="1">
      <stop offset="0%" stop-color="#FAFAFF"/><stop offset="100%" stop-color="#F8FAFC"/>
    </linearGradient>
    <linearGradient id="brand" x1="0" y1="0" x2="1" y2="0">
      <stop offset="0%" stop-color="#635BFF"/><stop offset="100%" stop-color="#818CF8"/>
    </linearGradient>
  </defs>
  <rect width="720" height="400" rx="16" fill="url(#bg)"/>
  <rect x="20" y="20" width="680" height="360" rx="14" fill="#fff" stroke="#E2E8F0"/>
  <text x="44" y="52" font-family="system-ui,-apple-system,sans-serif" font-size="13" font-weight="600" fill="#64748B">Languages</text>
  
    <rect x="44" y="72" width="140" height="56" rx="10" fill="#F8FAFC" stroke="#E2E8F0"/><text x="64" y="106" font-family="system-ui,sans-serif" font-size="12" fill="#0F172A">English</text><rect x="204" y="72" width="140" height="56" rx="10" fill="#EEF2FF" stroke="#C7D2FE"/><text x="224" y="106" font-family="system-ui,sans-serif" font-size="12" fill="#0F172A">Spanish</text><rect x="364" y="72" width="140" height="56" rx="10" fill="#F8FAFC" stroke="#E2E8F0"/><text x="384" y="106" font-family="system-ui,sans-serif" font-size="12" fill="#0F172A">French</text><rect x="524" y="72" width="140" height="56" rx="10" fill="#F8FAFC" stroke="#E2E8F0"/><text x="544" y="106" font-family="system-ui,sans-serif" font-size="12" fill="#0F172A">German</text><rect x="44" y="152" width="140" height="56" rx="10" fill="#F8FAFC" stroke="#E2E8F0"/><text x="64" y="186" font-family="system-ui,sans-serif" font-size="12" fill="#0F172A">Arabic</text><rect x="204" y="152" width="140" height="56" rx="10" fill="#F8FAFC" stroke="#E2E8F0"/><text x="224" y="186" font-family="system-ui,sans-serif" font-size="12" fill="#0F172A">Japanese</text><rect x="364" y="152" width="140" height="56" rx="10" fill="#F8FAFC" stroke="#E2E8F0"/><text x="384" y="186" font-family="system-ui,sans-serif" font-size="12" fill="#0F172A">Portuguese</text><rect x="524" y="152" width="140" height="56" rx="10" fill="#F8FAFC" stroke="#E2E8F0"/><text x="544" y="186" font-family="system-ui,sans-serif" font-size="12" fill="#0F172A">Hindi</text>
</svg>